<svg xmlns="http://www.w3.org/2000/svg" viewBox="0 0 24 24" fill="none" stroke="currentColor" stroke-width="2" stroke-linecap="round" stroke-linejoin="round"><rect x="2" y="2" width="20" height="20" rx="2"/><path d="M6 6h3v3H6z"/><path d="M15 6h3v3h-3z"/><path d="M6 15h3v3H6z"/><path d="M10 10h4v4h-4z"/><path d="M15 15h3v3h-3z"/><path d="M10 6h1v1h-1z"/><path d="M13 6h1v1h-1z"/><path d="M6 10h1v1H6z"/><path d="M6 13h1v1H6z"/><path d="M17 10h1v1h-1z"/><path d="M17 13h1v1h-1z"/><path d="M10 17h1v1h-1z"/><path d="M13 17h1v1h-1z"/></svg>